#!OML:ASF I:\Actors\actors\Patient Classification 1\Patient 1\Session 1\Subject1.ASF
:FULLY-SPECIFIED
:DEGREES
344
root 0.241048 17.6177 8.61882 19.5531 10.4489 -10.2359
lowerback 12.5641 0.124277 5.68517
upperback -0.347217 1.18002 2.22662
thorax -7.37681 0.405662 -1.06382
lowerneck 7.92877 -6.93328 -5.21963
upperneck -21.7004 -6.54904 19.6796
head -6.93773 -4.60076 7.97243
rclavicle 3.97569e-016 -4.25399e-014
rhumerus 7.03027 24.9321 -79.985
rradius 32.4857
rwrist 23.2822
rhand -0.884222 -27.6045
rfingers 7.12502
rthumb 24.7432 -56.0242
lclavicle 3.97569e-016 -4.25399e-014
lhumerus -0.14468 -11.0015 91.3373
lradius 20.6428
lwrist -25.9917
lhand -25.4536 -25.7236
lfingers 7.12502
lthumb 1.07351 4.25346
rfemur -16.177 21.197 22.7798
rtibia 5.04719
rfoot -15.6371 -31.5998
rtoes 7.65408
lfemur -18.4959 -44.234 7.48062
ltibia -2.86477
lfoot -11.653 49.0032
ltoes -0.606691
345
root 0.254004 17.6143 8.61941 19.7741 10.3566 -10.3875
lowerback 12.5803 0.0428001 6.01611
upperback -0.449601 1.14499 2.44144
thorax -7.49855 0.375943 -1.01424
lowerneck 7.99171 -7.0096 -5.28147
upperneck -21.6695 -6.68528 19.6284
head -6.91938 -4.66031 7.97137
rclavicle -9.14409e-015 -6.59965e-014
rhumerus 7.11989 25.0835 -79.9246
rradius 32.4609
rwrist 23.187
rhand -0.988935 -27.4345
rfingers 7.12502
rthumb 24.6428 -55.868
lclavicle -9.14409e-015 -6.59965e-014
lhumerus -0.595274 -10.4204 91.5847
lradius 20.975
lwrist -24.8748
lhand -25.519 -25.3443
lfingers 7.12502
lthumb 1.0103 4.63308
rfemur -16.359 21.2871 22.82
rtibia 4.87272
rfoot -15.4286 -31.5835
rtoes 7.28281
lfemur -18.723 -44.6613 7.9544
ltibia -3.01654
lfoot -11.928 49.6125
ltoes -0.22546
346
root 0.264773 17.6176 8.62553 19.9143 10.2003 -10.2662
lowerback 12.7123 -0.0800568 5.95659
upperback -0.57534 1.00832 2.65231
thorax -7.72307 0.309144 -0.730794
lowerneck 8.10242 -6.95879 -5.30378
upperneck -21.7712 -6.64664 19.425
head -6.98663 -4.62944 7.91785
rclavicle -1.88845e-014 -9.54166e-015
rhumerus 7.06925 25.289 -80.0356
rradius 32.4295
rwrist 23.0775
rhand -0.940151 -27.3915
rfingers 7.12502
rthumb 24.6896 -55.8185
lclavicle -1.88845e-014 -9.54166e-015
lhumerus -1.11562 -9.36309 91.8402
lradius 21.0447
lwrist -24.1429
lhand -25.6317 -25.274
lfingers 7.12502
lthumb 0.901449 4.70389
rfemur -16.3315 21.5929 22.5259
rtibia 4.55928
rfoot -15.3864 -31.8051
rtoes 7.59
lfemur -18.8364 -45.5831 8.10458
ltibia -3.14184
lfoot -12.3687 50.5423
ltoes 0.346848
347
root 0.275667 17.6214 8.63112 19.9892 10.0057 -10.1864
lowerback 12.9371 -0.207146 5.9576
upperback -0.701735 0.886198 2.89148
thorax -7.99964 0.247118 -0.452146
lowerneck 8.01602 -6.89512 -5.3193
upperneck -21.8144 -6.62375 19.0688
head -7.00353 -4.58293 7.79439
rclavicle 1.55052e-014 1.92821e-014
rhumerus 7.0396 25.4215 -80.1786
rradius 32.2737
rwrist 23.0518
rhand -0.807138 -27.388
rfingers 7.12502
rthumb 24.8171 -55.7976
lclavicle 1.55052e-014 1.92821e-014
lhumerus -1.52162 -8.20871 92.0848
lradius 20.8747
lwrist -23.7442
lhand -25.6561 -25.2345
lfingers 7.12502
lthumb 0.877902 4.74345
rfemur -16.2495 21.9151 22.3016
rtibia 4.27745
rfoot -15.3327 -32.006
rtoes 8.15646
lfemur -18.8377 -46.3783 8.16954
ltibia -3.22547
lfoot -13.0401 51.3569
ltoes 1.24093
348
root 0.281313 17.6309 8.64078 19.9644 9.79415 -10.0913
lowerback 13.22 -0.270948 6.11388
upperback -0.744833 0.861932 2.99262
thorax -8.20975 0.225594 -0.426294
lowerneck 7.8187 -6.9528 -5.14497
upperneck -22.0215 -6.71974 18.7209
head -7.04568 -4.61047 7.65219
rclavicle 2.29596e-014 -3.4191e-014
rhumerus 6.91112 23.8189 -80.9518
rradius 31.9722
rwrist 24.5444
rhand -0.49954 -27.1262
rfingers 7.12502
rthumb 25.1118 -55.4949
lclavicle 2.29596e-014 -3.4191e-014
lhumerus -1.71282 -7.6431 92.172
lradius 20.5838
lwrist -23.6712
lhand -25.5819 -25.0189
lfingers 7.12502
lthumb 0.949602 4.95871
rfemur -16.0612 22.5123 22.0997
rtibia 4.07062
rfoot -15.3832 -32.4393
rtoes 8.75406
lfemur -18.6054 -46.7809 7.95451
ltibia -3.28593
lfoot -13.79 51.7653
ltoes 2.24075
349
root 0.285914 17.6415 8.65028 19.9763 9.55941 -9.96026
lowerback 13.3182 -0.298898 6.39402
upperback -0.680502 0.872229 2.97247
thorax -8.19223 0.219286 -0.607453
lowerneck 7.63919 -7.03513 -5.05525
upperneck -22.4165 -6.7942 18.6374
head -7.13766 -4.65173 7.63003
rclavicle -1.5704e-014 -2.60408e-014
rhumerus 6.52188 19.675 -82.6883
rradius 31.9549
rwrist 28.6326
rhand 1.20257 -26.2691
rfingers 7.12502
rthumb 26.7417 -54.3992
lclavicle -1.5704e-014 -2.60408e-014
lhumerus -1.68063 -7.49777 92.0921
lradius 20.2335
lwrist -24.0156
lhand -25.3451 -24.906
lfingers 7.12502
lthumb 1.17826 5.0705
rfemur -16.0015 23.0054 21.8608
rtibia 3.99638
rfoot -15.2927 -32.8315
rtoes 8.88872
lfemur -18.3867 -46.62 7.56719
ltibia -3.29314
lfoot -14.1582 51.7135
ltoes 2.84946
350
root 0.299619 17.6453 8.64871 20.255 9.27376 -9.80298
lowerback 13.0527 -0.309502 6.79756
upperback -0.581377 0.885744 2.92405
thorax -7.92746 0.216121 -0.888511
lowerneck 7.44362 -7.1196 -4.88881
upperneck -22.8824 -6.88092 18.4146
head -7.25982 -4.69386 7.55225
rclavicle -9.0447e-015 2.98177e-014
rhumerus 7.75114 22.8357 -81.0892
rradius 31.3235
rwrist 25.4108
rhand 2.3094 -26.65
rfingers 7.12502
rthumb 27.8005 -54.6138
lclavicle -9.0447e-015 2.98177e-014
lhumerus -1.48973 -7.52791 91.9649
lradius 19.9094
lwrist -24.67
lhand -25.1106 -24.8752
lfingers 7.12502
lthumb 1.40474 5.09996
rfemur -16.4813 22.813 21.4816
rtibia 4.20016
rfoot -14.9429 -32.6231
rtoes 8.42011
lfemur -18.7066 -46.0342 7.39064
ltibia -3.13397
lfoot -13.919 51.4434
ltoes 2.85188
351
root 0.311975 17.6484 8.64243 20.5117 9.00794 -9.64151
lowerback 12.7841 -0.330223 7.15224
upperback -0.425177 0.875301 2.92364
thorax -7.60247 0.20868 -1.0862
lowerneck 7.25751 -7.14581 -4.6216
upperneck -23.3874 -6.89876 18.032
head -7.4206 -4.69721 7.40403
rclavicle 3.67752e-015 6.04305e-014
rhumerus 8.63281 23.9933 -80.251
rradius 31.1213
rwrist 24.3857
rhand 1.97896 -27.0621
rfingers 7.12502
rthumb 27.4845 -55.0765
lclavicle 3.67752e-015 6.04305e-014
lhumerus -1.23426 -7.66026 91.8398
lradius 19.6473
lwrist -25.573
lhand -25.1502 -24.8237
lfingers 7.12502
lthumb 1.36647 5.15163
rfemur -17.03 22.5788 21.1043
rtibia 4.56668
rfoot -14.8604 -32.3335
rtoes 8.35275
lfemur -19.029 -45.0774 7.12813
ltibia -2.9227
lfoot -13.2154 50.7566
ltoes 2.45606
352
root 0.31636 17.6512 8.63542 20.6029 8.78119 -9.5301
lowerback 12.7526 -0.383355 7.41824
upperback -0.275983 0.83644 2.99117
thorax -7.42474 0.189092 -1.15663
lowerneck 7.10384 -7.0821 -4.52635
upperneck -23.7735 -6.81133 17.7516
head -7.54851 -4.64247 7.30844
rclavicle 8.89561e-015 -1.64991e-014
rhumerus 9.13857 24.063 -80.0224
rradius 31.1136
rwrist 24.6419
rhand 0.0568372 -27.5918
rfingers 7.12502
rthumb 25.6448 -55.8847
lclavicle 8.89561e-015 -1.64991e-014
lhumerus -1.11783 -7.93969 91.6902
lradius 19.517
lwrist -26.4629
lhand -25.361 -25.0735
lfingers 7.12502
lthumb 1.16295 4.90304
rfemur -17.3734 22.6077 20.8567
rtibia 4.91454
rfoot -14.9463 -32.2383
rtoes 8.87769
lfemur -19.0606 -43.6998 6.648
ltibia -2.69032
lfoot -12.6233 49.5149
ltoes 2.25032
353
root 0.303222 17.6595 8.6442 20.1678 8.62279 -9.39741
lowerback 13.6153 -0.418244 7.72842
upperback -0.355831 0.927152 2.89053
thorax -7.98975 0.199248 -1.45575
lowerneck 7.19073 -7.17082 -4.38587
upperneck -23.7976 -6.94156 17.6067
head -7.57133 -4.70616 7.24754
rclavicle -2.24875e-014 1.03368e-014
rhumerus 8.72489 23.6837 -80.3268
rradius 31.2016
rwrist 24.905
rhand -1.0557 -27.7276
rfingers 7.12502
rthumb 24.5788 -56.1698
lclavicle -2.24875e-014 1.03368e-014
lhumerus -1.68036 -9.01599 91.4738
lradius 19.6223
lwrist -26.7113
lhand -25.4802 -25.4343
lfingers 7.12502
lthumb 1.04777 4.54286
rfemur -16.805 23.28 20.889
rtibia 4.94084
rfoot -15.2811 -32.7522
rtoes 9.79595
lfemur -18.0877 -42.6011 5.59224
ltibia -2.72835
lfoot -11.796 48.2639
ltoes 1.29081
354
root 0.297855 17.6563 8.64327 20.0742 8.46798 -9.27558
lowerback 13.4067 -0.491897 7.60768
upperback -0.00462964 0.779457 3.09783
thorax -7.50624 0.159306 -1.14055
lowerneck 6.88043 -7.08829 -4.39345
upperneck -24.0349 -6.83188 17.4707
head -7.61108 -4.63785 7.19719
rclavicle 2.56556e-014 4.8578e-015
rhumerus 9.27141 24.1565 -79.8874
rradius 31.3989
rwrist 24.5882
rhand -1.28558 -27.6974
rfingers 7.12502
rthumb 24.3585 -56.1693
lclavicle 2.56556e-014 4.8578e-015
lhumerus -1.26646 -8.94566 91.4518
lradius 19.5086
lwrist -26.9643
lhand -25.5474 -25.5774
lfingers 7.12502
lthumb 0.982909 4.40008
rfemur -16.7661 23.5738 20.7755
rtibia 5.11496
rfoot -15.4191 -32.9883
rtoes 9.94286
lfemur -17.8234 -41.8335 5.10134
ltibia -2.66243
lfoot -11.1572 47.5165
ltoes 0.306491
355
root 0.296832 17.6476 8.64004 20.2159 8.29814 -9.13381
lowerback 13.3173 -0.503817 7.81997
upperback -0.0285825 0.787609 3.08466
thorax -7.47898 0.155439 -1.27434
lowerneck 6.74265 -7.15989 -4.41447
upperneck -23.9954 -6.92479 17.5502
head -7.55526 -4.68406 7.22072
rclavicle 9.01364e-015 -3.8353e-014
rhumerus 8.89819 23.0484 -80.4142
rradius 31.6189
rwrist 25.5934
rhand -1.20551 -27.4189
rfingers 7.12502
rthumb 24.4352 -55.8806
lclavicle 9.01364e-015 -3.8353e-014
lhumerus -1.27199 -9.1206 91.4864
lradius 19.3716
lwrist -27.052
lhand -25.4806 -25.4206
lfingers 7.12502
lthumb 1.04737 4.55655
rfemur -17.0022 23.735 20.5156
rtibia 5.24122
rfoot -15.4478 -33.1585
rtoes 9.87307
lfemur -17.9344 -41.6051 4.97484
ltibia -2.66748
lfoot -11.0041 47.436
ltoes 0.0815911
356
root 0.296071 17.6392 8.64123 20.4315 8.10927 -8.92585
lowerback 13.2005 -0.514329 7.88185
upperback -0.176956 0.780119 3.07003
thorax -7.57361 0.143073 -1.32139
lowerneck 6.6846 -7.23812 -4.25466
upperneck -23.806 -7.03874 17.5045
head -7.4794 -4.74215 7.16523
rclavicle 1.41386e-014 -3.77691e-014
rhumerus 7.93448 19.8876 -81.9937
rradius 31.9548
rwrist 28.8471
rhand -0.566607 -26.7283
rfingers 7.12502
rthumb 25.0476 -55.1059
lclavicle 1.41386e-014 -3.77691e-014
lhumerus -1.49664 -8.89511 91.6265
lradius 19.3144
lwrist -27.3742
lhand -25.325 -25.1166
lfingers 7.12502
lthumb 1.19768 4.85981
rfemur -17.2161 23.9825 20.1247
rtibia 5.17196
rfoot -15.4252 -33.408
rtoes 9.59948
lfemur -18.0778 -41.8341 4.92306
ltibia -2.80733
lfoot -11.1657 47.8262
ltoes 0.478156
